HIERARCHY
ROOT joint_Root
{
	OFFSET 0.0 0.0 0.0
	CHANNELS 6 Xposition Yposition Zposition Zrotation Xrotation Yrotation 
	JOINT Hips
	{
		OFFSET 4.5925 91.4895 -427.239
		CHANNELS 6 Xposition Yposition Zposition Zrotation Xrotation Yrotation 
		JOINT Spine
		{
			OFFSET 15.7357 0.0 0.0
			CHANNELS 6 Xposition Yposition Zposition Zrotation Xrotation Yrotation 
			JOINT Chest
			{
				OFFSET 8.98455 -0.406207 0.0
				CHANNELS 6 Xposition Yposition Zposition Zrotation Xrotation Yrotation 
				JOINT Neck
				{
					OFFSET 16.3773 0.0 0.0
					CHANNELS 6 Xposition Yposition Zposition Zrotation Xrotation Yrotation 
					JOINT Head
					{
						OFFSET 6.45672 0.0 0.0
						CHANNELS 6 Xposition Yposition Zposition Zrotation Xrotation Yrotation 
						End Site
						{
							OFFSET 0.0 0.0 0.0
						}
					}
				}
				JOINT Shoulder_L
				{
					OFFSET 12.9942 -0.242716 4.98039
					CHANNELS 6 Xposition Yposition Zposition Zrotation Xrotation Yrotation 
					JOINT UpperArm_L
					{
						OFFSET 5.34809 0.0 0.0
						CHANNELS 6 Xposition Yposition Zposition Zrotation Xrotation Yrotation 
						JOINT LowerArm_L
						{
							OFFSET 24.3286 1.87007e-05 0.0
							CHANNELS 6 Xposition Yposition Zposition Zrotation Xrotation Yrotation 
							JOINT Hand_L
							{
								OFFSET 22.2916 0.0 0.0
								CHANNELS 6 Xposition Yposition Zposition Zrotation Xrotation Yrotation 
								End Site
								{
									OFFSET 0.0 0.0 0.0
								}
							}
						}
					}
				}
				JOINT Shoulder_R
				{
					OFFSET 12.9945 -0.242716 -4.98039
					CHANNELS 6 Xposition Yposition Zposition Zrotation Xrotation Yrotation 
					JOINT UpperArm_R
					{
						OFFSET -5.34813 0.0 0.0
						CHANNELS 6 Xposition Yposition Zposition Zrotation Xrotation Yrotation 
						JOINT LowerArm_R
						{
							OFFSET -24.3289 0.000322201 0.0
							CHANNELS 6 Xposition Yposition Zposition Zrotation Xrotation Yrotation 
							JOINT Hand_R
							{
								OFFSET -22.2915 -0.000108084 0.0
								CHANNELS 6 Xposition Yposition Zposition Zrotation Xrotation Yrotation 
								End Site
								{
									OFFSET 0.0 0.0 0.0
								}
							}
						}
					}
				}
			}
		}
		JOINT UpperLeg_L
		{
			OFFSET -2.19248 -6.46944 0.0
			CHANNELS 6 Xposition Yposition Zposition Zrotation Xrotation Yrotation 
			JOINT LowerLeg_L
			{
				OFFSET 39.0811 0.0 -1.23785e-05
				CHANNELS 6 Xposition Yposition Zposition Zrotation Xrotation Yrotation 
				JOINT Foot_L
				{
					OFFSET 40.9854 0.0 -1.26872e-05
					CHANNELS 6 Xposition Yposition Zposition Zrotation Xrotation Yrotation 
					JOINT Toes_L
					{
						OFFSET 11.7543 0.0 0.0
						CHANNELS 6 Xposition Yposition Zposition Zrotation Xrotation Yrotation 
						End Site
						{
							OFFSET 0.0 0.0 0.0
						}
					}
				}
			}
		}
		JOINT UpperLeg_R
		{
			OFFSET -2.19251 6.46944 0.0
			CHANNELS 6 Xposition Yposition Zposition Zrotation Xrotation Yrotation 
			JOINT LowerLeg_R
			{
				OFFSET -39.0811 -0.00228153 -0.0401928
				CHANNELS 6 Xposition Yposition Zposition Zrotation Xrotation Yrotation 
				JOINT Foot_R
				{
					OFFSET -40.9854 0.0 0.0
					CHANNELS 6 Xposition Yposition Zposition Zrotation Xrotation Yrotation 
					JOINT Toes_R
					{
						OFFSET -11.7543 0.0 0.0
						CHANNELS 6 Xposition Yposition Zposition Zrotation Xrotation Yrotation 
						End Site
						{
							OFFSET 0.0 0.0 0.0
						}
					}
				}
			}
		}
	}
}
MOTION
Frames:	9
Frame Time:	0.0333333
0.000000 0.000000 0.000000 0.000000 0.000000 -0.000000 142.552000 89.265500 -108.299000 88.941400 1.459950 -3.636350 15.735700 0.000005 -0.000001 74.630200 82.673100 -75.890800 8.984550 -0.406207 -0.000000 6.333390 -3.856810 -2.305430 16.377300 -0.000001 -0.000001 0.582682 4.477330 -0.800585 6.456720 -0.000001 -0.000000 0.021347 8.648750 2.478620 12.994200 -0.242716 4.980390 -90.260800 0.762730 -71.122300 5.348090 -0.000007 -0.000001 -60.838400 37.096200 -28.905300 24.328600 0.000019 0.000005 6.070350 -1.113850 -100.366000 22.291600 -0.000001 0.000005 9.943970 5.495960 -6.371730 12.994500 -0.242716 -4.980390 88.467400 5.724740 -74.984600 -5.348130 -0.000001 -0.000004 -66.685100 42.556000 26.202800 -24.328900 0.000322 -0.000009 -5.401540 -2.038120 -69.386600 -22.291500 -0.000108 -0.000004 17.450800 5.659300 -15.978800 -2.192480 -6.469440 -0.000000 176.872000 -11.546500 -16.616500 39.081100 -0.000007 -0.000012 0.031484 -0.039873 38.294000 40.985400 -0.000006 -0.000013 7.313200 -0.480148 -76.567200 11.754300 -0.000000 0.000003 0.002291 0.060287 -14.131500 -2.192510 6.469440 -0.000001 174.485000 7.854450 164.522000 -39.081100 -0.002282 -0.040193 0.146570 -0.046382 72.086400 -40.985400 0.000008 0.000006 4.236980 1.319790 -39.954700 -11.754300 -0.000006 -0.000006 -0.028019 -0.208239 -25.099500
0.000000 0.000000 0.000000 0.000000 0.000000 -0.000000 142.520000 91.345500 -104.458000 87.476000 2.097540 -3.267860 15.735700 0.000005 -0.000001 67.373600 82.253000 -67.954700 8.984550 -0.406207 -0.000000 6.532410 -5.936320 -0.822627 16.377300 -0.000001 -0.000001 1.312070 5.144680 -0.667716 6.456720 -0.000001 -0.000000 0.783288 10.795500 1.911860 12.994200 -0.242716 4.980390 -89.556800 -1.316200 -71.388200 5.348090 -0.000007 -0.000001 -57.826400 35.502000 -36.727900 24.328600 0.000019 0.000005 4.168680 -1.245930 -106.612000 22.291600 -0.000001 0.000005 8.806900 5.492250 -6.223380 12.994500 -0.242716 -4.980390 89.021300 3.424180 -74.037500 -5.348130 -0.000001 -0.000004 -66.311200 44.721800 29.805800 -24.328900 0.000322 -0.000009 -5.330880 -1.285290 -76.476700 -22.291500 -0.000108 -0.000004 15.840600 5.659450 -15.995900 -2.192480 -6.469440 -0.000000 179.552000 -13.128000 -9.877460 39.081100 -0.000007 -0.000012 0.020044 -0.033904 30.590300 40.985400 -0.000006 -0.000013 6.762160 2.537090 -72.391800 11.754300 -0.000000 0.000003 -0.000173 -0.002860 -16.693600 -2.192510 6.469440 -0.000001 177.745000 6.927740 158.842000 -39.081100 -0.002282 -0.040193 0.092684 -0.025550 74.090000 -40.985400 0.000008 0.000006 3.964050 -1.694690 -44.216200 -11.754300 -0.000006 -0.000006 -0.025968 -0.198350 -24.690100
0.000000 0.000000 0.000000 0.000000 0.000000 -0.000000 142.392000 93.048500 -100.903000 85.686500 3.598480 -4.201730 15.735700 0.000005 -0.000001 60.967900 82.128200 -60.563500 8.984550 -0.406207 -0.000000 6.068200 -7.625760 1.213710 16.377300 -0.000001 -0.000001 1.897310 5.181890 -0.542905 6.456720 -0.000001 -0.000000 1.116480 12.035800 1.897730 12.994200 -0.242716 4.980390 -88.889600 -3.340110 -71.599200 5.348090 -0.000007 -0.000001 -56.303200 33.922100 -42.603400 24.328600 0.000019 0.000005 3.804730 -1.452020 -110.860000 22.291600 -0.000001 0.000005 7.290540 5.482960 -5.861680 12.994500 -0.242716 -4.980390 89.563300 1.427930 -72.992200 -5.348130 -0.000001 -0.000004 -66.582400 44.929100 33.051500 -24.328900 0.000322 -0.000009 -6.206910 -0.828987 -82.418400 -22.291500 -0.000108 -0.000004 16.353800 5.660550 -16.121600 -2.192480 -6.469440 -0.000000 -177.609000 -14.228300 -6.129340 39.081100 -0.000007 -0.000012 0.010189 -0.021862 24.987600 40.985400 -0.000006 -0.000013 6.018190 5.836890 -67.654600 11.754300 -0.000000 0.000003 -0.006908 -0.078878 -19.787800 -2.192510 6.469440 -0.000001 -178.226000 6.833870 152.936000 -39.081100 -0.002282 -0.040193 0.044538 -0.013167 72.380300 -40.985400 0.000008 0.000006 4.108600 -3.306160 -47.703800 -11.754300 -0.000006 -0.000006 -0.025864 -0.197839 -24.669000
0.000000 0.000000 0.000000 0.000000 0.000000 -0.000000 142.284000 94.171100 -97.357100 84.410600 4.885570 -5.165850 15.735700 0.000005 -0.000001 56.153900 81.999700 -54.978500 8.984550 -0.406207 -0.000000 5.669570 -8.911950 2.793920 16.377300 -0.000001 -0.000001 2.403560 5.256930 -0.328056 6.456720 -0.000001 -0.000000 0.853753 12.730900 2.141790 12.994200 -0.242716 4.980390 -88.225200 -5.288070 -71.416600 5.348090 -0.000007 -0.000001 -55.636800 32.606900 -46.507000 24.328600 0.000019 0.000005 3.939060 -1.743540 -113.839000 22.291600 -0.000001 0.000005 6.899630 5.470730 -5.397480 12.994500 -0.242716 -4.980390 90.066000 -0.201873 -71.907100 -5.348130 -0.000001 -0.000004 -67.112300 43.954400 34.528100 -24.328900 0.000322 -0.000009 -5.785660 -0.334367 -86.701100 -22.291500 -0.000108 -0.000004 16.481900 5.658490 -15.886800 -2.192480 -6.469440 -0.000000 -175.262000 -15.924200 -3.247620 39.081100 -0.000007 -0.000012 0.004928 -0.012895 20.916200 40.985400 -0.000006 -0.000013 5.374570 9.090050 -63.676500 11.754300 -0.000000 0.000003 -0.016266 -0.145661 -22.521900 -2.192510 6.469440 -0.000001 -175.098000 6.421360 148.451000 -39.081100 -0.002282 -0.040193 0.013605 -0.004335 67.497200 -40.985400 0.000008 0.000006 3.280560 -2.551980 -52.203100 -11.754300 -0.000006 -0.000006 -0.025427 -0.195684 -24.579900
0.000000 0.000000 0.000000 0.000000 0.000000 -0.000000 142.322000 94.495200 -93.843800 83.761600 5.116490 -5.909120 15.735700 0.000005 -0.000001 53.784900 82.005000 -52.122400 8.984550 -0.406207 -0.000000 5.332250 -9.462150 3.768660 16.377300 -0.000001 -0.000001 2.933050 5.380090 -0.166356 6.456720 -0.000001 -0.000000 0.324646 13.085300 2.357130 12.994200 -0.242716 4.980390 -87.720400 -6.737290 -71.256900 5.348090 -0.000007 -0.000001 -55.369900 31.438900 -48.412100 24.328600 0.000019 0.000005 3.945980 -1.937950 -116.116000 22.291600 -0.000001 0.000005 6.777060 5.456120 -4.859580 12.994500 -0.242716 -4.980390 90.485900 -1.436070 -71.304400 -5.348130 -0.000001 -0.000004 -67.847100 41.952400 34.728900 -24.328900 0.000322 -0.000009 -4.898280 -0.038935 -89.542600 -22.291500 -0.000108 -0.000004 16.207500 5.652780 -15.286400 -2.192480 -6.469440 -0.000000 -173.739000 -17.185200 -0.690690 39.081100 -0.000007 -0.000012 0.002615 -0.007809 18.514600 40.985400 -0.000006 -0.000013 4.716920 10.859300 -61.537400 11.754300 -0.000000 0.000003 -0.025348 -0.195305 -24.568000 -2.192510 6.469440 -0.000001 -173.130000 5.791080 145.471000 -39.081100 -0.002282 -0.040193 -0.006866 0.005854 59.823500 -40.985400 0.000008 0.000006 2.093540 -0.502572 -55.349400 -11.754300 -0.000006 -0.000006 -0.025612 -0.196599 -24.617700
0.000000 0.000000 0.000000 0.000000 0.000000 -0.000000 142.504000 93.993500 -90.336900 83.846200 4.977150 -6.270920 15.735700 0.000005 -0.000001 52.713800 81.936800 -50.904200 8.984550 -0.406207 -0.000000 5.283210 -9.787840 4.074650 16.377300 -0.000001 -0.000001 2.993360 5.534270 0.019009 6.456720 -0.000001 -0.000000 -0.247595 13.272000 2.785270 12.994200 -0.242716 4.980390 -87.464400 -7.441290 -71.122600 5.348090 -0.000007 -0.000001 -55.058600 30.372700 -48.892200 24.328600 0.000019 0.000005 4.617330 -2.439560 -117.791000 22.291600 -0.000001 0.000005 6.631940 5.444430 -4.441540 12.994500 -0.242716 -4.980390 90.611300 -1.811260 -71.346700 -5.348130 -0.000001 -0.000004 -68.520800 39.050500 33.878000 -24.328900 0.000322 -0.000009 -4.773380 0.087124 -91.039900 -22.291500 -0.000108 -0.000004 16.351000 5.649580 -14.976000 -2.192480 -6.469440 -0.000000 -173.288000 -16.518100 1.705000 39.081100 -0.000007 -0.000012 0.000511 -0.001590 17.843000 40.985400 -0.000006 -0.000013 4.325060 10.339100 -61.683300 11.754300 -0.000000 0.000003 -0.034036 -0.235412 -26.231700 -2.192510 6.469440 -0.000001 -171.838000 6.570540 144.205000 -39.081100 -0.002282 -0.040193 -0.015002 0.015473 49.708200 -40.985400 0.000008 0.000006 1.205940 2.914810 -57.649400 -11.754300 -0.000006 -0.000006 -0.026166 -0.199323 -24.730400
0.000000 0.000000 0.000000 0.000000 0.000000 -0.000000 142.778000 92.635500 -86.649700 84.565200 5.158480 -5.989840 15.735700 0.000005 -0.000001 52.667900 81.664700 -50.946500 8.984550 -0.406207 -0.000000 5.714060 -10.116300 3.952100 16.377300 -0.000001 -0.000001 2.485330 5.515330 0.179088 6.456720 -0.000001 -0.000000 -0.896193 13.133300 3.293800 12.994200 -0.242716 4.980390 -87.610000 -7.169340 -71.508600 5.348090 -0.000007 -0.000001 -54.696400 29.561600 -47.796400 24.328600 0.000019 0.000005 5.216360 -2.884800 -118.867000 22.291600 -0.000001 0.000005 6.545590 5.440910 -4.317780 12.994500 -0.242716 -4.980390 90.330200 -0.998449 -71.697600 -5.348130 -0.000001 -0.000004 -68.651400 35.611100 31.983400 -24.328900 0.000322 -0.000009 -4.187910 0.094253 -91.283000 -22.291500 -0.000108 -0.000004 17.380600 5.647310 -14.764900 -2.192480 -6.469440 -0.000000 -173.848000 -12.697500 3.992490 39.081100 -0.000007 -0.000012 -0.001826 0.005237 19.221500 40.985400 -0.000006 -0.000013 3.729890 7.633690 -63.952700 11.754300 -0.000000 0.000003 -0.045158 -0.280065 -28.097300 -2.192510 6.469440 -0.000001 -170.802000 9.676200 144.265000 -39.081100 -0.002282 -0.040193 -0.010028 0.016413 39.039300 -40.985400 0.000008 0.000006 -2.982520 7.899130 -57.605100 -11.754300 -0.000006 -0.000006 -0.026920 -0.202985 -24.881900
0.000000 0.000000 0.000000 0.000000 0.000000 -0.000000 143.057000 90.592800 -82.505400 85.672000 5.225640 -4.968660 15.735700 0.000005 -0.000001 54.673500 81.226400 -53.209600 8.984550 -0.406207 -0.000000 6.762910 -10.127300 3.530420 16.377300 -0.000001 -0.000001 1.458640 5.140280 0.616177 6.456720 -0.000001 -0.000000 -1.774480 12.594200 3.379390 12.994200 -0.242716 4.980390 -88.197000 -5.698930 -72.412200 5.348090 -0.000007 -0.000001 -54.150600 29.178700 -45.096300 24.328600 0.000019 0.000005 5.503690 -3.023670 -118.698000 22.291600 -0.000001 0.000005 6.952720 5.450200 -4.646590 12.994500 -0.242716 -4.980390 89.658500 1.082940 -72.494600 -5.348130 -0.000001 -0.000004 -68.280200 31.785000 28.825100 -24.328900 0.000322 -0.000009 -4.415540 -0.030547 -89.601300 -22.291500 -0.000108 -0.000004 18.671300 5.647000 -14.735000 -2.192480 -6.469440 -0.000000 -174.175000 -10.687300 6.533030 39.081100 -0.000007 -0.000012 -0.003781 0.008992 22.807200 40.985400 -0.000006 -0.000013 2.998230 7.375490 -67.479200 11.754300 -0.000000 0.000003 -0.065671 -0.349793 -31.044300 -2.192510 6.469440 -0.000001 -169.897000 12.824100 144.397000 -39.081100 -0.002282 -0.040193 -0.014016 0.026757 32.902900 -40.985400 0.000008 0.000006 -5.575940 10.351100 -58.184400 -11.754300 -0.000006 -0.000006 -0.027309 -0.204852 -24.959300
0.000000 0.000000 0.000000 0.000000 0.000000 -0.000000 143.235000 88.347800 -77.590100 86.478000 4.893290 -4.515150 15.735700 0.000005 -0.000001 56.818200 81.343400 -55.388900 8.984550 -0.406207 -0.000000 6.916080 -9.455010 3.433080 16.377300 -0.000001 -0.000001 0.747041 4.530160 0.794921 6.456720 -0.000001 -0.000000 -1.941820 11.391600 2.837680 12.994200 -0.242716 4.980390 -89.277000 -2.500340 -73.870700 5.348090 -0.000007 -0.000001 -53.914400 29.828400 -39.504300 24.328600 0.000019 0.000005 5.546940 -2.701500 -115.888000 22.291600 -0.000001 0.000005 7.654670 5.467230 -5.266690 12.994500 -0.242716 -4.980390 88.665600 4.554200 -73.647200 -5.348130 -0.000001 -0.000004 -66.980100 28.098300 24.783500 -24.328900 0.000322 -0.000009 -5.176030 -0.439066 -85.161900 -22.291500 -0.000108 -0.000004 20.276400 5.647810 -14.809200 -2.192480 -6.469440 -0.000000 -174.249000 -9.722530 8.711590 39.081100 -0.000007 -0.000012 -0.005221 0.010307 26.864700 40.985400 -0.000006 -0.000013 2.474720 7.582160 -69.834400 11.754300 -0.000000 0.000003 -0.107766 -0.463440 -35.959200 -2.192510 6.469440 -0.000001 -167.971000 16.093400 142.341000 -39.081100 -0.002282 -0.040193 -0.032635 0.050656 35.344500 -40.985400 0.000008 0.000006 -3.227440 8.808860 -60.495300 -11.754300 -0.000006 -0.000006 -0.028285 -0.209495 -25.151600
